HIERARCHY
ROOT pelvis
{
  OFFSET 0 100 0
  CHANNELS 6 Xposition Yposition Zposition Zrotation Xrotation Yrotation
  JOINT pelvis_right_femur
  {
    OFFSET -10.78128 -3.44521 -0.5502486
    CHANNELS 3 Zrotation Xrotation Yrotation
    JOINT right_femur_tibia
    {
      OFFSET -0.8047443 -44.0398 -0.1307829
      CHANNELS 3 Zrotation Xrotation Yrotation
      JOINT right_tibia_foot
      {
        OFFSET 3.006224 -47.83518 -5
        CHANNELS 3 Zrotation Xrotation Yrotation
        End Site
        {
          OFFSET 0 -5 15
        }
      }
    }
  }
  JOINT pelvis_left_femur
  {
    OFFSET 10.78128 -3.44521 -0.5502486
    CHANNELS 3 Zrotation Xrotation Yrotation
    JOINT left_femur_tibia
    {
      OFFSET 0.8047443 -44.0398 -0.1307829
      CHANNELS 3 Zrotation Xrotation Yrotation
      JOINT left_tibia_foot
      {
        OFFSET -4.370144 -48.10324 -4.275266
        CHANNELS 3 Zrotation Xrotation Yrotation
        End Site
        {
          OFFSET 0 -5 15
        }
      }
    }
  }
  JOINT pelvis_spine1
  {
    OFFSET 0 6.468898 -3.129235
    CHANNELS 3 Zrotation Xrotation Yrotation
    JOINT spine1
    {
      OFFSET 0 23.15396 4.99043
      CHANNELS 3 Zrotation Xrotation Yrotation
      JOINT spine2
      {
        OFFSET 0 20.79997 -5.064912
        CHANNELS 3 Zrotation Xrotation Yrotation
        JOINT neck
        {
          OFFSET 0 14.38658 9.616178
          CHANNELS 3 Zrotation Xrotation Yrotation
          End Site
          {
            OFFSET 0 20 0
          }
        }
      }
      JOINT right_manubrium
      {
        OFFSET -5.722621 16.35077 3.967754
        CHANNELS 3 Zrotation Xrotation Yrotation
        JOINT right_clavicle
        {
          OFFSET -13.16364 1.694482 -4.693211
          CHANNELS 3 Zrotation Xrotation Yrotation
          JOINT right_humerus
          {
            OFFSET -28.5034 -0.3100689 -2.792744
            CHANNELS 3 Zrotation Xrotation Yrotation
            JOINT right_radius
            {
              OFFSET -25.15693 0.02248979 -1.271978
              CHANNELS 3 Zrotation Xrotation Yrotation
              End Site
              {
                OFFSET -15 0 0
              }
            }
          }
        }
      }
      JOINT left_manubrium
      {
        OFFSET 5.722621 16.35077 3.967754
        CHANNELS 3 Zrotation Xrotation Yrotation
        JOINT left_clavicle
        {
          OFFSET 13.16364 1.694482 -4.693211
          CHANNELS 3 Zrotation Xrotation Yrotation
          JOINT left_humerus
          {
            OFFSET 29.39168 -1.063119 -2.237045
            CHANNELS 3 Zrotation Xrotation Yrotation
            JOINT left_radius
            {
              OFFSET 24.59957 -0.9528479 0.9047498
              CHANNELS 3 Zrotation Xrotation Yrotation
              End Site
              {
                OFFSET 15 -0 -0
              }
            }
          }
        }
      }
    }
  }
}
MOTION
Frames: 9
Frame Time: 0.0416666666667
-1696.293 98.80931 2207.555 -12.20421 -0.3879067 -95.54617 0.1427062 0.2562999 -5.727985 -0 43.755 -0 -13.01869 14.18329 1.341468 -4.783628 0.8831732 -7.105248 -0 13.04215 -0 7.286248 -9.001037 18.11036 -1.82038 -2.706967 3.45175 -2.147463 15.32658 -4.177093 1.66877 23.69246 4.941694 3.140182 -16.32086 5.676771 -2.747467 -22.07268 11.18936 93.65059 14.14606 -13.04185 -0 0 12.32325 -29.76157 8.937307 15.43588 5.650306 -24.54967 -9.657614 -87.92052 7.707876 17.86931 0 0 -9.598714 17.20272 14.29379 -8.026355
-1702.745 99.57458 2207.705 -11.43804 -0.3077027 -94.94265 0.4744061 -5.230818 -6.348734 -0 39.17256 -0 -14.12389 14.3487 1.448557 -5.007531 5.06611 -7.463475 -0 13.76754 -0 7.972952 -10.06262 17.54992 -1.616152 -2.951521 2.959819 -1.624588 15.50632 -4.945425 1.561914 23.53359 4.999833 3.243415 -16.94706 5.649287 -2.80359 -21.69218 11.25383 94.63228 14.21127 -15.1907 -0 0 10.68641 -28.49284 8.950639 14.4987 6.005724 -25.88276 -9.920033 -87.27442 7.381796 16.38524 0 0 -12.22971 18.72785 14.5456 -9.681936
-1709.061 100.0861 2207.719 -10.52273 -0.1110172 -94.46441 1.027944 -10.67617 -6.974722 -0 32.60414 -0 -15.46191 13.90906 1.661273 -4.985975 8.792325 -7.645682 -0 15.04695 -0 8.679808 -10.91984 16.9132 -1.285544 -3.237537 2.565487 -1.021269 15.74374 -5.766107 1.429584 23.30099 4.996847 3.345058 -17.68509 5.536898 -2.934846 -21.49149 11.36043 95.60749 14.22716 -17.39769 -0 0 9.168474 -27.06711 8.997095 13.50221 6.382542 -27.39516 -10.17648 -86.75149 6.908304 15.13099 0 0 -15.11385 20.43133 14.77768 -11.522
-1715.272 100.3263 2207.571 -9.652494 0.1612396 -94.14928 1.697425 -15.57368 -7.555371 -0 25.24062 -0 -16.85549 13.2115 1.903209 -4.801198 11.89324 -7.617168 -0 17.04882 -0 9.275397 -11.4768 16.20481 -0.8752781 -3.517953 2.270333 -0.4269413 16.02429 -6.545769 1.298436 23.0525 4.937388 3.432619 -18.38819 5.359881 -3.131117 -21.39269 11.49059 96.5542 14.11748 -19.47397 -0 0 7.77863 -25.73116 9.073125 12.56085 6.727385 -28.92352 -10.43556 -86.32718 6.300008 14.07288 0 0 -17.93265 22.13598 14.924 -13.36971
-1721.452 100.3626 2207.25 -9.035863 0.4501196 -94.0067 2.389765 -19.28808 -8.016028 -0 18.42403 -0 -18.0465 12.58437 2.071947 -4.534811 14.1133 -7.312796 -0 20.08304 -0 9.544263 -11.60524 15.41712 -0.4368013 -3.721994 2.087296 0.05686333 16.31205 -7.170803 1.202466 22.85358 4.828113 3.487729 -18.88296 5.147717 -3.359196 -21.28588 11.62273 97.39871 13.85495 -21.19144 -0 0 6.546235 -24.75137 9.207176 11.79888 6.970384 -30.24124 -10.68679 -85.97528 5.637309 13.17471 0 0 -20.32119 23.53975 14.93248 -14.90821
-1727.715 100.3341 2206.766 -8.834029 0.7000916 -94.02131 3.038643 -21.25698 -8.286702 -0 13.29865 -0 -18.7873 12.25906 2.080339 -4.248887 15.20397 -6.678925 -0 24.38797 -0 9.287676 -11.19752 14.55543 -0.01725631 -3.782612 2.032071 0.3443121 16.56379 -7.54069 1.17138 22.75748 4.678044 3.494421 -19.02641 4.931753 -3.576402 -21.0738 11.73782 98.04799 13.46459 -22.34877 -0 0 5.5198 -24.33573 9.437494 11.31848 7.051096 -31.13109 -10.9075 -85.67657 5.033764 12.41778 0 0 -21.9642 24.33423 14.79089 -15.80765
-1734.175 100.4013 2206.144 -9.053214 0.887222 -94.16858 3.628152 -21.27378 -8.320739 -0 10.24118 -0 -18.95251 12.19496 1.891961 -3.945521 15.024 -5.744913 -0 29.80304 -0 8.457003 -10.25229 13.68019 0.3543449 -3.674638 2.119281 0.4131006 16.73839 -7.619576 1.212558 22.7721 4.499293 3.447875 -18.79765 4.73615 -3.74245 -20.74284 11.82696 98.41296 13.04556 -22.85723 -0 0 4.788123 -24.50224 9.778912 11.14949 6.95594 -31.48163 -11.05765 -85.44304 4.613432 11.85066 0 0 -22.73967 24.35385 14.53582 -15.87827
-1740.891 100.6772 2205.416 -9.523852 1.025104 -94.43269 4.185155 -19.56284 -8.107222 -0 8.737501 -0 -18.58716 12.05926 1.53757 -3.561538 13.57607 -4.643944 -0 35.64239 -0 7.20119 -8.906874 12.91465 0.6693537 -3.429899 2.359562 0.3158656 16.80593 -7.450564 1.305125 22.85261 4.306684 3.35661 -18.3212 4.57256 -3.830442 -20.38999 11.89238 98.42364 12.74929 -22.75631 -0 0 4.483337 -25.05584 10.20387 11.24081 6.728196 -31.323 -11.08565 -85.32627 4.48108 11.6054 0 0 -22.7475 23.6431 14.23273 -15.14325
-1747.849 101.1812 2204.614 -10.00452 1.142456 -94.8119 4.732274 -16.59514 -7.681195 -0 7.904131 -0 -17.86367 11.44634 1.112181 -3.023958 10.9903 -3.557548 -0 40.88671 -0 5.79507 -7.390797 12.40197 0.9254498 -3.117985 2.751316 0.1389376 16.75729 -7.118373 1.412435 22.93156 4.117118 3.237994 -17.79146 4.442534 -3.833952 -20.17434 11.94079 98.04286 12.70698 -22.14784 -0 0 4.739156 -25.71495 10.65065 11.50549 6.439924 -30.7788 -10.9538 -85.39798 4.682898 11.84533 0 0 -22.1902 22.4061 13.94784 -13.79786
